<svg id="Capa_1" enable-background="new 0 0 512 512" height="512" viewBox="0 0 512 512" width="512" xmlns="http://www.w3.org/2000/svg"><g><path d="m467 302h-29.287c8.694-24.19 13.229-49.975 13.229-76.5 0-124.616-100.828-225.5-225.471-225.5-124.617 0-225.471 100.856-225.471 225.5 0 50.054 16.132 97.475 45.949 136.5h-28.849c-8.284 0-15 6.716-15 15 0 8.267 6.689 14.97 14.95 14.998v90.005c-8.261.027-14.95 6.73-14.95 14.997 0 8.284 6.716 15 15 15h449.9c24.813 0 45-20.187 45-45v-120c0-24.813-20.187-45-45-45zm0 30c8.271 0 15 6.729 15 15s-6.729 15-15 15h-62.006c7.279-9.527 13.741-19.555 19.353-30zm-330 60v90h-89.95v-90zm30 0h89.515v90h-89.515zm28.478-62.05c0-16.542 13.455-30 29.993-30 16.539 0 29.994 13.458 29.994 30s-13.455 30-29.994 30c-16.538 0-29.993-13.458-29.993-30zm91.037 62.05h90.285v90h-90.285zm-256.515-166.5c0-107.799 87.688-195.5 195.471-195.5s195.472 87.701 195.472 195.5c0 51.497-19.688 99.784-55.538 136.5h-89.255c25.288-39.853-3.578-92.05-50.68-92.05-47.171 0-75.919 52.272-50.679 92.05h-89.253c-35.85-36.716-55.538-85.003-55.538-136.5zm437 256.5h-60.2v-90c65.166 0 65.634.813 75.2-2.58v77.58c0 8.271-6.729 15-15 15z"/><path d="m225.471 181.05c33.081 0 59.994-26.916 59.994-60s-26.913-60-59.994-60c-33.08 0-59.993 26.916-59.993 60s26.913 60 59.993 60zm0-90c16.539 0 29.994 13.458 29.994 30s-13.455 30-29.994 30c-16.538 0-29.993-13.458-29.993-30s13.455-30 29.993-30z"/><path d="m181.021 225.5c0-33.081-26.916-59.994-60-59.994s-60 26.913-60 59.994 26.916 59.994 60 59.994 60-26.913 60-59.994zm-60 29.994c-16.542 0-30-13.455-30-29.994s13.458-29.994 30-29.994 30 13.455 30 29.994-13.458 29.994-30 29.994z"/><path d="m329.921 285.494c33.084 0 60-26.913 60-59.994s-26.916-59.994-60-59.994-60 26.913-60 59.994 26.916 59.994 60 59.994zm0-89.988c16.542 0 30 13.455 30 29.994s-13.458 29.994-30 29.994-30-13.455-30-29.994 13.458-29.994 30-29.994z"/></g></svg>